 <svg viewBox="25.4659 33.0191 449.0686 433.9614" width="449.0686" height="433.9614" xmlns="http://www.w3.org/2000/svg">
  <defs>
    <linearGradient id="paint0_linear_1_28" x1="47.1852" y1="-4.87285" x2="47.1852" y2="107.651" gradientUnits="userSpaceOnUse" gradientTransform="matrix(3.753083, 0, 0, 3.753083, 25.467056, 33.019974)">
      <stop stop-color="#EF0BFD"/>
      <stop offset="0.1652" stop-color="#C922F6"/>
      <stop offset="0.5741" stop-color="#7058E4"/>
      <stop offset="0.8616" stop-color="#397AD9"/>
      <stop offset="1" stop-color="#2387D5"/>
    </linearGradient>
    <linearGradient id="paint1_linear_1_28" x1="32.8694" y1="-4.87287" x2="32.8694" y2="107.651" gradientUnits="userSpaceOnUse" gradientTransform="matrix(3.753083, 0, 0, 3.753083, 25.467056, 33.019974)">
      <stop stop-color="#EF0BFD"/>
      <stop offset="0.1652" stop-color="#C922F6"/>
      <stop offset="0.5741" stop-color="#7058E4"/>
      <stop offset="0.8616" stop-color="#397AD9"/>
      <stop offset="1" stop-color="#2387D5"/>
    </linearGradient>
    <linearGradient id="paint2_linear_1_28" x1="97.1359" y1="-4.87288" x2="97.1359" y2="107.651" gradientUnits="userSpaceOnUse" gradientTransform="matrix(3.753083, 0, 0, 3.753083, 25.467056, 33.019974)">
      <stop stop-color="#EF0BFD"/>
      <stop offset="0.1652" stop-color="#C922F6"/>
      <stop offset="0.5741" stop-color="#7058E4"/>
      <stop offset="0.8616" stop-color="#397AD9"/>
      <stop offset="1" stop-color="#2387D5"/>
    </linearGradient>
    <linearGradient id="paint3_linear_1_28" x1="104.264" y1="-4.87287" x2="104.264" y2="107.651" gradientUnits="userSpaceOnUse" gradientTransform="matrix(3.753083, 0, 0, 3.753083, 25.467056, 33.019974)">
      <stop stop-color="#EF0BFD"/>
      <stop offset="0.1652" stop-color="#C922F6"/>
      <stop offset="0.5741" stop-color="#7058E4"/>
      <stop offset="0.8616" stop-color="#397AD9"/>
      <stop offset="1" stop-color="#2387D5"/>
    </linearGradient>
  </defs>
  <path d="M 289.848 229.682 L 357.29 338.484 C 365.322 351.432 360.218 368.51 346.369 374.927 C 334.696 380.331 320.846 376.204 314.093 365.244 L 301.82 345.466 C 296.115 336.27 284.442 332.742 274.61 337.322 C 262.938 342.725 258.621 357.137 265.414 368.059 L 302.306 427.582 C 310.45 440.755 305.273 458.057 291.235 464.588 C 279.413 470.067 265.339 465.864 258.471 454.756 L 170.873 313.377 C 162.731 300.241 167.909 282.901 181.946 276.409 C 193.768 270.929 207.842 275.132 214.71 286.204 L 220.752 295.962 C 226.044 304.481 236.853 307.709 245.937 303.506 L 256.369 298.665 C 263.2 295.511 265.714 287.105 261.736 280.687 L 156.387 110.747 L 117.242 128.912 L 125.5 142.236 C 133.756 155.559 128.315 173.124 113.939 179.429 C 102.192 184.571 88.419 180.329 81.663 169.408 L 29.345 85.001 C 21.464 72.316 26.006 55.614 39.216 48.596 C 51.188 42.253 66.051 46.269 73.182 57.792 L 80.762 70.027 C 101.141 108.497 138.111 74.53 135.183 65.711 C 130.154 50.473 134.094 42.967 139.686 38.088 C 147.568 31.219 159.765 33.022 162.579 33.921 C 171.025 36.662 180.294 52.125 181.196 54.225 C 204.202 91.344 227.209 128.462 250.215 165.58 C 265.339 184.946 288.721 166.105 290.298 160.289 C 292.361 152.669 289.134 145.988 287.482 143.362 L 285.306 138.933 C 278.137 122.156 285.268 113.788 299.717 107.106 C 311.914 101.44 326.402 105.794 333.457 117.204 L 375.718 185.397 C 384.123 198.945 378.758 216.772 364.308 223.451 C 352.111 229.082 337.662 224.766 330.605 213.357 L 326.552 206.826 C 320.811 197.557 309.062 194.028 299.155 198.607 C 287.37 204.199 283.016 218.686 289.848 229.682 Z" fill="url(#paint0_linear_1_28)" style=""/>
  <path d="M 166.108 262.673 C 154.286 268.152 140.211 263.947 133.343 252.877 L 120.508 232.16 C 112.363 219.024 117.543 201.684 131.58 195.191 C 143.403 189.712 157.475 193.917 164.344 205.025 L 177.18 225.742 C 185.323 238.841 180.144 256.18 166.108 262.673 Z" fill="url(#paint1_linear_1_28)" style=""/>
  <path d="M 403.082 286.204 C 390.883 291.871 376.397 287.519 369.341 276.109 L 365.588 270.065 C 357.219 256.517 362.548 238.691 376.998 232.008 C 389.195 226.342 403.682 230.696 410.737 242.106 L 414.49 248.148 C 422.859 261.659 417.532 279.486 403.082 286.204 Z" fill="url(#paint2_linear_1_28)" style=""/>
  <path d="M 459.34 196.655 C 447.292 202.248 433.03 197.97 426.05 186.71 L 362.994 84.926 C 354.738 71.565 359.992 54 374.254 47.358 C 386.264 41.766 400.564 46.045 407.548 57.303 L 470.636 159.087 C 478.856 172.448 473.602 190.05 459.34 196.655 Z" fill="url(#paint3_linear_1_28)" style=""/>
</svg>
